<svg width="14" height="14" viewBox="0 0 14 14" fill="none" xmlns="http://www.w3.org/2000/svg">
<circle cx="7" cy="7" r="7" fill="#FF937C"/>
<g clip-path="url(#clip0)">
<path d="M9.82797 4.17179C10.1014 4.44521 10.1014 4.88837 9.82783 5.16194L7.98955 7.00021L9.82791 8.83857C10.1014 9.11206 10.1013 9.5553 9.82788 9.82861C9.69116 9.96532 9.51209 10.0337 9.33305 10.0337C9.15377 10.0336 8.97469 9.96535 8.83811 9.82864L6.99947 7.99015L5.16097 9.82864C5.02434 9.96527 4.84537 10.0336 4.66601 10.0336C4.48709 10.0336 4.30798 9.96521 4.17127 9.82849C3.89783 9.5552 3.89778 9.11199 4.17131 8.83846L6.00961 7.00015L4.17123 5.16176C3.89778 4.88831 3.89783 4.44495 4.17123 4.17154C4.44461 3.89831 4.88755 3.89824 5.16112 4.17151L6.99969 6.01007L8.83818 4.17158C9.11169 3.89837 9.55447 3.89856 9.82797 4.17179Z" fill="white"/>
</g>
<defs>
<clipPath id="clip0">
<rect width="8" height="8" fill="white" transform="translate(1.34277 7) rotate(-45)"/>
</clipPath>
</defs>
</svg>
