<svg width="6" height="4" viewBox="0 0 6 4" fill="none" xmlns="http://www.w3.org/2000/svg">
<path d="M5.9041 0.524713L5.70756 0.326809C5.6457 0.265004 5.56341 0.230955 5.47546 0.230955C5.38756 0.230955 5.30517 0.265004 5.24331 0.326809L3.00134 2.56888L0.756787 0.324321C0.69503 0.262516 0.612639 0.228516 0.524736 0.228516C0.436833 0.228516 0.354393 0.262516 0.292588 0.324321L0.0960008 0.521006C-0.0320003 0.648909 -0.0320003 0.857252 0.0960008 0.985156L2.76841 3.66718C2.83017 3.72893 2.91246 3.77245 3.00115 3.77245H3.00217C3.09012 3.77245 3.17242 3.72888 3.23417 3.66718L5.9041 0.992424C5.96595 0.930668 5.9999 0.845886 6 0.757983C6 0.670031 5.96595 0.586421 5.9041 0.524713Z" fill="#53CAB2"/>
</svg>
