<svg width="32" height="32" viewBox="0 0 32 32" fill="none" xmlns="http://www.w3.org/2000/svg">
<g clip-path="url(#clip0)">
<path d="M15.9582 0.105469C7.14606 0.105469 0.109375 7.25059 0.109375 16.0627C0.109375 24.0748 5.80912 30.7066 13.8211 31.8459V21.8757H10.0822V17.6026H13.8211V14.3423C13.8211 10.762 15.9758 8.81293 19.17 8.81293C20.6997 8.81293 21.8332 8.9267 22.3673 8.97798V12.7191L20.1597 12.7201C18.4232 12.7201 18.0942 13.5464 18.0942 14.7562V17.6026H22.0655L21.5255 21.8757H18.0942V31.895C25.5721 30.9261 32.0004 24.2094 32.0004 16.0627C32.0004 7.25059 24.7704 0.105469 15.9582 0.105469Z" fill="#1D5DAA"/>
<path d="M27.241 4.77888C21.0098 -1.45233 10.905 -1.45233 4.67383 4.77888L13.8396 13.9441C13.995 10.6773 16.0536 8.8132 19.0607 8.8132C20.5905 8.8132 21.8329 8.92697 22.367 8.97824V12.7193L20.1595 12.7204C18.423 12.7204 18.094 13.5467 18.094 14.7565V17.6024H22.0652L21.5252 21.8755H21.506L27.1566 27.3957C33.3873 21.1645 33.4722 11.0101 27.241 4.77888Z" fill="#064D93"/>
<path d="M0.934735 16.9975C0.934735 8.18532 8.08039 1.0402 16.8925 1.0402C21.0609 1.0402 24.8538 2.64047 27.6975 5.25773C24.7812 2.09031 20.6021 0.105469 15.9578 0.105469C7.14565 0.105469 0 7.25059 0 16.0627C0 20.706 1.98645 24.8856 5.15226 27.8025C2.53554 24.9593 0.934735 21.1653 0.934735 16.9975Z" fill="#3E78CC"/>
<path d="M18.0938 21.7109V29.5104L20.0124 31.5134C21.9513 31.0166 23.7246 30.1001 25.3067 28.9661L18.0938 21.7109Z" fill="#064D93"/>
<path d="M13.8201 21.8763H10.0967L10.1672 21.7812L13.8201 25.1928V21.8763Z" fill="#064D93"/>
<path d="M5.59702 8.29365C5.9165 8.29365 6.17549 8.03467 6.17549 7.71519C6.17549 7.39571 5.9165 7.13672 5.59702 7.13672C5.27754 7.13672 5.01855 7.39571 5.01855 7.71519C5.01855 8.03467 5.27754 8.29365 5.59702 8.29365Z" fill="#5397EA"/>
<path d="M5.59702 12.1335C5.9165 12.1335 6.17549 11.8745 6.17549 11.555C6.17549 11.2356 5.9165 10.9766 5.59702 10.9766C5.27754 10.9766 5.01855 11.2356 5.01855 11.555C5.01855 11.8745 5.27754 12.1335 5.59702 12.1335Z" fill="#5397EA"/>
<path d="M9.70347 8.29365C10.0229 8.29365 10.2819 8.03467 10.2819 7.71519C10.2819 7.39571 10.0229 7.13672 9.70347 7.13672C9.38399 7.13672 9.125 7.39571 9.125 7.71519C9.125 8.03467 9.38399 8.29365 9.70347 8.29365Z" fill="#5397EA"/>
<path d="M15.2455 4.68819C15.5649 4.68819 15.8239 4.4292 15.8239 4.10972C15.8239 3.79024 15.5649 3.53125 15.2455 3.53125C14.926 3.53125 14.667 3.79024 14.667 4.10972C14.667 4.4292 14.926 4.68819 15.2455 4.68819Z" fill="#1D5DAA"/>
<path d="M26.2929 10.076C26.6126 10.076 26.8719 9.81674 26.8719 9.49697C26.8719 9.1772 26.6126 8.91797 26.2929 8.91797C25.9731 8.91797 25.7139 9.1772 25.7139 9.49697C25.7139 9.81674 25.9731 10.076 26.2929 10.076Z" fill="#1D5DAA"/>
<path d="M20.4935 5.46945C20.6717 5.46945 20.8161 5.32501 20.8161 5.14684C20.8161 4.96866 20.6717 4.82422 20.4935 4.82422C20.3153 4.82422 20.1709 4.96866 20.1709 5.14684C20.1709 5.32501 20.3153 5.46945 20.4935 5.46945Z" fill="#1D5DAA"/>
<path d="M5.7943 23.9109C5.97247 23.9109 6.11691 23.7664 6.11691 23.5882C6.11691 23.4101 5.97247 23.2656 5.7943 23.2656C5.61612 23.2656 5.47168 23.4101 5.47168 23.5882C5.47168 23.7664 5.61612 23.9109 5.7943 23.9109Z" fill="#5397EA"/>
<path d="M10.3012 4.92655C10.379 4.92655 10.4422 4.86342 10.4422 4.78554C10.4422 4.70766 10.379 4.64453 10.3012 4.64453C10.2233 4.64453 10.1602 4.70766 10.1602 4.78554C10.1602 4.86342 10.2233 4.92655 10.3012 4.92655Z" fill="#1D5DAA"/>
<path d="M5.59702 18.0436C5.9165 18.0436 6.17549 17.7847 6.17549 17.4652C6.17549 17.1457 5.9165 16.8867 5.59702 16.8867C5.27754 16.8867 5.01855 17.1457 5.01855 17.4652C5.01855 17.7847 5.27754 18.0436 5.59702 18.0436Z" fill="#5397EA"/>
<path d="M5.80855 17.0437C5.80855 17.1441 5.64083 17.2243 5.54095 17.2243C5.44213 17.2243 5.27441 17.1441 5.27441 17.0437V8.07507C5.27441 7.97465 5.44213 7.89453 5.54095 7.89453C5.64136 7.89453 5.80855 7.97465 5.80855 8.07507V17.0437Z" fill="#5397EA"/>
<path d="M9.5257 7.45312C9.62505 7.45312 9.70571 7.61977 9.70624 7.72019C9.70517 7.81954 9.62505 7.98726 9.5257 7.98726H5.89733C5.79745 7.98726 5.7168 7.81954 5.7168 7.72019C5.7168 7.61977 5.79745 7.45312 5.89733 7.45312H9.5257Z" fill="#5397EA"/>
<path d="M8.36851 12.1335C8.68799 12.1335 8.94697 11.8745 8.94697 11.555C8.94697 11.2356 8.68799 10.9766 8.36851 10.9766C8.04903 10.9766 7.79004 11.2356 7.79004 11.555C7.79004 11.8745 8.04903 12.1335 8.36851 12.1335Z" fill="#5397EA"/>
<path d="M8.14953 11.1914C8.21523 11.1914 8.27078 11.3586 8.27078 11.459C8.26918 11.5584 8.21523 11.7255 8.14953 11.7255H5.70533C5.63856 11.7255 5.58301 11.5584 5.58301 11.459C5.58301 11.3586 5.63856 11.1914 5.70533 11.1914H8.14953Z" fill="#5397EA"/>
<path d="M26.3192 24.865C26.639 24.865 26.8982 24.6058 26.8982 24.286C26.8982 23.9663 26.639 23.707 26.3192 23.707C25.9995 23.707 25.7402 23.9663 25.7402 24.286C25.7402 24.6058 25.9995 24.865 26.3192 24.865Z" fill="#5397EA"/>
<path d="M22.2108 24.865C22.5306 24.865 22.7898 24.6058 22.7898 24.286C22.7898 23.9663 22.5306 23.707 22.2108 23.707C21.8911 23.707 21.6318 23.9663 21.6318 24.286C21.6318 24.6058 21.8911 24.865 22.2108 24.865Z" fill="#5397EA"/>
<path d="M26.3192 15.115C26.639 15.115 26.8982 14.8558 26.8982 14.536C26.8982 14.2163 26.639 13.957 26.3192 13.957C25.9995 13.957 25.7402 14.2163 25.7402 14.536C25.7402 14.8558 25.9995 15.115 26.3192 15.115Z" fill="#5397EA"/>
<path d="M26.1055 14.9579C26.1055 14.8575 26.2721 14.7773 26.3725 14.7773C26.4719 14.7773 26.6396 14.8575 26.6396 14.9579V23.9265C26.6396 24.0269 26.4719 24.1071 26.3725 24.1071C26.2721 24.1071 26.1055 24.0269 26.1055 23.9265V14.9579Z" fill="#5397EA"/>
<path d="M22.3895 24.5459C22.2902 24.5459 22.209 24.3792 22.209 24.2788C22.2101 24.1794 22.2902 24.0117 22.3895 24.0117H26.0179C26.1172 24.0117 26.1984 24.1794 26.1984 24.2788C26.1984 24.3792 26.1172 24.5459 26.0179 24.5459H22.3895Z" fill="#5397EA"/>
</g>
<defs>
<clipPath id="clip0">
<rect width="32" height="32" fill="white"/>
</clipPath>
</defs>
</svg>
