<svg width="32" height="32" viewBox="0 0 32 32" fill="none" xmlns="http://www.w3.org/2000/svg">
<path d="M16.3624 0C11.5093 0 7.18248 2.12851 4.25103 5.50301C3.35774 6.53235 2.59228 7.67567 1.9834 8.91242L7.37449 13.0303C7.99928 11.1344 9.20574 9.50744 10.7834 8.35642C12.3456 7.21824 14.2719 6.5457 16.3619 6.5457C18.6197 6.5457 20.6589 7.34607 22.2612 8.65521L26.9223 4.00083C24.0827 1.52733 20.4412 0 16.3624 0Z" fill="#FF7976"/>
<path d="M1.98242 8.91191L7.37351 13.0298C7.9983 11.1339 9.20477 9.50692 10.7824 8.35591C12.3447 7.21772 14.2709 6.54519 16.3609 6.54519C18.6188 6.54519 20.6579 7.34556 22.2602 8.6547L26.9213 4.00032C24.0807 1.52784 20.4398 0 16.3609 0" fill="#E3443A"/>
<path d="M6.89381 16.0019C6.89381 15.8546 6.90459 15.7093 6.91126 15.5635C6.95336 14.6825 7.10994 13.8334 7.37383 13.032L1.98274 8.91406C0.991384 10.925 0.416389 13.1767 0.351702 15.5635C0.347595 15.7098 0.338867 15.8551 0.338867 16.0019C0.338867 16.1493 0.347595 16.2951 0.351188 16.4414C0.415875 18.825 0.99087 21.0757 1.97966 23.0846L7.36921 18.959C7.10789 18.1617 6.95233 17.3162 6.91126 16.4409C6.90459 16.2951 6.89381 16.1498 6.89381 16.0019Z" fill="#F4D72C"/>
<path d="M1.98047 23.0846L7.37002 18.959C7.1087 18.1617 6.95315 17.3162 6.91207 16.4409C6.9054 16.2945 6.89462 16.1493 6.89462 16.0014C6.89462 15.8541 6.9054 15.7088 6.91207 15.563C6.95417 14.682 7.11076 13.8328 7.37464 13.0314L1.98304 8.91406" fill="#F7B92B"/>
<path d="M21.6836 24.0539C20.2395 24.9636 18.4205 25.4528 16.3624 25.4528C15.158 25.4528 14.0105 25.2239 12.953 24.8168C12.1742 24.5169 11.4472 24.116 10.7834 23.6334C9.20626 22.4849 7.99928 20.8632 7.37449 18.9688L1.9834 23.0861C2.59125 24.3208 3.35517 25.4626 4.24693 26.4904C7.17837 29.8685 11.5083 31.9985 16.3624 31.9985C17.8307 31.9985 19.2738 31.8024 20.6517 31.4205C22.9425 30.7849 25.0535 29.6344 26.8016 28.0111L21.6836 24.0539Z" fill="#59C96E"/>
<path d="M1.98242 23.0859C2.59027 24.3206 3.35419 25.4624 4.24595 26.4902C7.1774 29.8683 11.5073 31.9983 16.3614 31.9983C17.8297 31.9983 19.2728 31.8022 20.6508 31.4202C22.9415 30.7847 25.0525 29.6342 26.8006 28.0108L21.6822 24.0542C20.238 24.9639 18.4191 25.4532 16.3609 25.4532C15.1565 25.4532 14.0091 25.2242 12.9515 24.8171C12.1727 24.5173 11.4457 24.1163 10.7819 23.6337" fill="#40A557"/>
<path d="M31.2917 12.918H30.3312H16.5107V15.5599V16.4378V19.0786H24.9555C24.5258 21.1322 23.3563 22.9989 21.6826 24.0539L26.8011 28.0106C28.2047 26.7076 29.3706 25.0724 30.2095 23.1811C31.1295 21.1091 31.6557 18.6274 31.6557 15.9002C31.6557 14.9556 31.5104 13.9447 31.2917 12.918Z" fill="#0FAEF4"/>
<path d="M26.8018 28.0106C28.2054 26.7076 29.3815 25.054 30.2204 23.1626C31.1404 21.0906 31.6615 18.6181 31.6615 15.8915C31.6615 14.9464 31.5111 13.9447 31.2924 12.918H30.3729" fill="#4087ED"/>
<path d="M16.5107 15.4844V16.4372V19.0781H24.725" fill="#4087ED"/>
</svg>
