<svg width="32" height="32" viewBox="0 0 32 32" fill="none" xmlns="http://www.w3.org/2000/svg">
<path d="M31.9994 24.9698C31.9994 28.8334 28.8828 31.9656 25.0378 31.9656H6.96267C3.11665 31.9656 0 28.8334 0 24.9698V7.027C0 3.16344 3.11665 0.03125 6.96267 0.03125H25.0383C28.8833 0.03125 32 3.16344 32 7.027V24.9698L31.9994 24.9698Z" fill="url(#paint0_radial)"/>
<path d="M21.1672 4.47266H10.8312C7.3201 4.47266 4.47168 7.32058 4.47168 10.8327V21.1667C4.47168 24.6788 7.3201 27.5267 10.8312 27.5267H21.1667C24.6788 27.5267 27.5262 24.6788 27.5262 21.1667V10.8323C27.5262 7.32058 24.6788 4.47266 21.1672 4.47266Z" fill="url(#paint1_linear)"/>
<path d="M21.1679 4.47266H10.832C9.04987 4.47266 7.44012 5.20857 6.28613 6.39064L25.3624 25.9386C26.6863 24.7731 27.527 23.0702 27.527 21.1662V10.8323C27.527 7.32058 24.6796 4.47266 21.1679 4.47266Z" fill="url(#paint2_linear)"/>
<path opacity="0.4" d="M24.5286 9.84288C24.5286 10.5312 23.9696 11.0881 23.2833 11.0881C22.596 11.0881 22.0371 10.5312 22.0371 9.84288C22.0371 9.15509 22.5961 8.59766 23.2833 8.59766C23.9691 8.59716 24.5286 9.15509 24.5286 9.84288Z" fill="url(#paint3_radial)"/>
<path opacity="0.4" d="M31.9988 24.9697V23.723L20.374 12.0977L12.0537 20.3311L23.6876 31.9649H25.0371C28.8822 31.9649 31.9988 28.8332 31.9988 24.9697Z" fill="url(#paint4_radial)"/>
<g opacity="0.3">
<path opacity="0.3" d="M22.1218 29.2339H11.7864C7.86516 29.2339 4.6748 26.0436 4.6748 22.1218V11.7879C4.6748 7.86664 7.8646 4.67578 11.7864 4.67578H22.1218C26.043 4.67578 29.2334 7.86608 29.2334 11.7879V22.1218C29.2329 26.043 26.043 29.2339 22.1218 29.2339ZM11.7864 6.17975C8.69431 6.17975 6.17877 8.69529 6.17877 11.7879V22.1218C6.17877 25.2139 8.69431 27.7299 11.7864 27.7299H22.1218C25.2139 27.7299 27.7294 25.2144 27.7294 22.1218V11.7879C27.7294 8.69579 25.2139 6.17975 22.1218 6.17975H11.7864Z" fill="url(#paint5_radial)"/>
</g>
<g opacity="0.3">
<path opacity="0.3" d="M16.954 22.8132C13.7241 22.8132 11.0957 20.1854 11.0957 16.9554C11.0957 13.7255 13.7241 11.0977 16.954 11.0977C20.1839 11.0977 22.8123 13.7255 22.8123 16.9554C22.8123 20.1854 20.1844 22.8132 16.954 22.8132ZM16.954 12.6016C14.5532 12.6016 12.5997 14.5547 12.5997 16.9554C12.5997 19.3562 14.5528 21.3093 16.954 21.3093C19.3552 21.3093 21.3083 19.3562 21.3083 16.9554C21.3083 14.5547 19.3548 12.6016 16.954 12.6016Z" fill="url(#paint6_radial)"/>
</g>
<path d="M21.1672 28.2807H10.8313C6.91008 28.2807 3.71973 25.0904 3.71973 21.1686V10.8347C3.71973 6.91351 6.90952 3.72266 10.8313 3.72266H21.1667C25.088 3.72266 28.2783 6.91295 28.2783 10.8347V21.1687C28.2783 25.0904 25.0885 28.2807 21.1672 28.2807ZM10.8313 5.22706C7.73924 5.22706 5.2237 7.7426 5.2237 10.8352V21.1691C5.2237 24.2612 7.73924 26.7772 10.8313 26.7772H21.1667C24.2588 26.7772 26.7744 24.2617 26.7744 21.1691V10.8347C26.7744 7.74267 24.2588 5.22663 21.1667 5.22663H10.8313V5.22706Z" fill="white"/>
<path d="M15.9998 21.107C18.8199 21.107 21.106 18.8208 21.106 16.0008C21.106 13.1807 18.8199 10.8945 15.9998 10.8945C13.1797 10.8945 10.8936 13.1807 10.8936 16.0008C10.8936 18.8208 13.1797 21.107 15.9998 21.107Z" fill="url(#paint7_linear)"/>
<path d="M10.8936 16.0005C10.8936 18.8203 13.18 21.1063 15.9999 21.1063C18.8198 21.1063 21.1062 18.8209 21.1062 16L10.8936 16.0005Z" fill="url(#paint8_linear)"/>
<path d="M15.9999 21.8562C12.77 21.8562 10.1416 19.2283 10.1416 15.9984C10.1416 12.7685 12.77 10.1406 15.9999 10.1406C19.2298 10.1406 21.8582 12.7685 21.8582 15.9984C21.8582 19.2283 19.2298 21.8562 15.9999 21.8562ZM15.9999 11.6446C13.5991 11.6446 11.6456 13.5977 11.6456 15.9984C11.6456 18.3991 13.5987 20.3523 15.9999 20.3523C18.4011 20.3523 20.3542 18.3991 20.3542 15.9984C20.3542 13.5977 18.4007 11.6446 15.9999 11.6446Z" fill="white"/>
<path d="M23.9661 9.28038C23.9661 9.96868 23.4071 10.5256 22.7208 10.5256C22.0335 10.5256 21.4746 9.96868 21.4746 9.28038C21.4746 8.59258 22.0336 8.03516 22.7208 8.03516C23.4066 8.03466 23.9661 8.59258 23.9661 9.28038Z" fill="white"/>
<defs>
<radialGradient id="paint0_radial" cx="0" cy="0" r="1" gradientUnits="userSpaceOnUse" gradientTransform="translate(9.30004 31.886) scale(32.2593)">
<stop stop-color="#FFD676"/>
<stop offset="0.246" stop-color="#F2A454"/>
<stop offset="0.379" stop-color="#F05C3C"/>
<stop offset="0.7" stop-color="#C22F86"/>
<stop offset="0.957" stop-color="#6666AD"/>
<stop offset="0.985" stop-color="#5C6CB2"/>
</radialGradient>
<linearGradient id="paint1_linear" x1="-0.368452" y1="2.1596" x2="18.6622" y2="18.2515" gradientUnits="userSpaceOnUse">
<stop stop-color="#FFD676"/>
<stop offset="0.246" stop-color="#F2A454"/>
<stop offset="0.379" stop-color="#F05C3C"/>
<stop offset="0.7" stop-color="#C22F86"/>
<stop offset="0.957" stop-color="#6666AD"/>
<stop offset="0.985" stop-color="#5C6CB2"/>
</linearGradient>
<linearGradient id="paint2_linear" x1="21.4153" y1="40.0397" x2="17.4049" y2="11.8824" gradientUnits="userSpaceOnUse">
<stop stop-color="#FFD676"/>
<stop offset="0.246" stop-color="#F2A454"/>
<stop offset="0.379" stop-color="#F05C3C"/>
<stop offset="0.7" stop-color="#C22F86"/>
<stop offset="0.957" stop-color="#6666AD"/>
<stop offset="0.985" stop-color="#5C6CB2"/>
</linearGradient>
<radialGradient id="paint3_radial" cx="0" cy="0" r="1" gradientUnits="userSpaceOnUse" gradientTransform="translate(23.2828 9.84292) scale(1.24548)">
<stop stop-color="#FFD676"/>
<stop offset="0.246" stop-color="#F2A454"/>
<stop offset="0.379" stop-color="#F05C3C"/>
<stop offset="0.7" stop-color="#C22F86"/>
<stop offset="0.957" stop-color="#6666AD"/>
<stop offset="0.985" stop-color="#5C6CB2"/>
</radialGradient>
<radialGradient id="paint4_radial" cx="0" cy="0" r="1" gradientUnits="userSpaceOnUse" gradientTransform="translate(17.8505 31.916) scale(20.1066)">
<stop stop-color="#FFD676"/>
<stop offset="0.246" stop-color="#F2A454"/>
<stop offset="0.379" stop-color="#F05C3C"/>
<stop offset="0.7" stop-color="#C22F86"/>
<stop offset="0.957" stop-color="#6666AD"/>
<stop offset="0.985" stop-color="#5C6CB2"/>
</radialGradient>
<radialGradient id="paint5_radial" cx="0" cy="0" r="1" gradientUnits="userSpaceOnUse" gradientTransform="translate(16.9541 16.9549) scale(12.2792)">
<stop stop-color="#FFD676"/>
<stop offset="0.246" stop-color="#F2A454"/>
<stop offset="0.379" stop-color="#F05C3C"/>
<stop offset="0.7" stop-color="#C22F86"/>
<stop offset="0.957" stop-color="#6666AD"/>
<stop offset="0.985" stop-color="#5C6CB2"/>
</radialGradient>
<radialGradient id="paint6_radial" cx="0" cy="0" r="1" gradientUnits="userSpaceOnUse" gradientTransform="translate(16.954 16.9555) scale(5.85804)">
<stop stop-color="#FFD676"/>
<stop offset="0.246" stop-color="#F2A454"/>
<stop offset="0.379" stop-color="#F05C3C"/>
<stop offset="0.7" stop-color="#C22F86"/>
<stop offset="0.957" stop-color="#6666AD"/>
<stop offset="0.985" stop-color="#5C6CB2"/>
</radialGradient>
<linearGradient id="paint7_linear" x1="26.1785" y1="7.45609" x2="13.7306" y2="17.9057" gradientUnits="userSpaceOnUse">
<stop stop-color="#FFD676"/>
<stop offset="0.246" stop-color="#F2A454"/>
<stop offset="0.379" stop-color="#F05C3C"/>
<stop offset="0.7" stop-color="#C22F86"/>
<stop offset="0.957" stop-color="#6666AD"/>
<stop offset="0.985" stop-color="#5C6CB2"/>
</linearGradient>
<linearGradient id="paint8_linear" x1="18.2993" y1="25.707" x2="13.8683" y2="7.59937" gradientUnits="userSpaceOnUse">
<stop stop-color="#FFD676"/>
<stop offset="0.246" stop-color="#F2A454"/>
<stop offset="0.379" stop-color="#F05C3C"/>
<stop offset="0.7" stop-color="#C22F86"/>
<stop offset="0.957" stop-color="#6666AD"/>
<stop offset="0.985" stop-color="#5C6CB2"/>
</linearGradient>
</defs>
</svg>
