<svg width="14" height="14" viewBox="0 0 14 14" fill="none" xmlns="http://www.w3.org/2000/svg">
<g opacity="0.3">
<circle cx="7" cy="7" r="7" fill="#53CAB2"/>
<g clip-path="url(#clip0)">
<path d="M10.9998 7.0001C10.9998 7.38677 10.6864 7.70013 10.2995 7.70013H7.69984V10.3C7.69984 10.6867 7.38637 11.0001 6.99975 11C6.8064 11 6.6314 10.9218 6.50483 10.7951C6.3781 10.6683 6.29976 10.4934 6.29985 10.3002L6.29975 7.70003H3.69972C3.5065 7.70003 3.33163 7.62179 3.2048 7.49496C3.07829 7.36844 3 7.19344 3 7.0001C2.9999 6.61349 3.31326 6.30006 3.70009 6.30006H6.29985V3.70019C6.29985 3.31347 6.61339 3 7.00004 3C7.38656 3.0001 7.69982 3.31326 7.70003 3.69993V6.30006H10.3001C10.6866 6.30027 10.9996 6.61349 10.9998 7.0001Z" fill="white"/>
</g>
</g>
<defs>
<clipPath id="clip0">
<rect width="8" height="8" fill="white" transform="translate(3 3)"/>
</clipPath>
</defs>
</svg>