<svg width="11" height="12" viewBox="0 0 11 12" fill="none" xmlns="http://www.w3.org/2000/svg">
<rect y="2" width="2" height="2" rx="1" transform="rotate(-90 0 2)" fill="#969BA3"/>
<rect x="9" y="2" width="2" height="2" rx="1" transform="rotate(-90 9 2)" fill="#969BA3"/>
<rect y="5" width="2" height="2" rx="1" transform="rotate(-90 0 5)" fill="#969BA3"/>
<rect x="9" y="5" width="2" height="2" rx="1" transform="rotate(-90 9 5)" fill="#969BA3"/>
<rect y="8" width="2" height="2" rx="1" transform="rotate(-90 0 8)" fill="#969BA3"/>
<rect x="9" y="8" width="2" height="2" rx="1" transform="rotate(-90 9 8)" fill="#969BA3"/>
<rect x="9" y="11" width="2" height="2" rx="1" transform="rotate(-90 9 11)" fill="#969BA3"/>
<rect x="3" y="5" width="5" height="2" rx="1" transform="rotate(-90 3 5)" fill="#969BA3"/>
<rect x="3" y="12" width="6" height="2" rx="1" transform="rotate(-90 3 12)" fill="#969BA3"/>
<rect x="6" y="9" width="9" height="2" rx="1" transform="rotate(-90 6 9)" fill="#969BA3"/>
</svg>
