<svg width="32" height="32" viewBox="0 0 32 32" fill="none" xmlns="http://www.w3.org/2000/svg">
<path d="M7.22577 10.8867H1.03223V30.4996H7.22577V10.8867Z" fill="#187FB8"/>
<path d="M7.22577 10.8867H1.03223V30.4996H7.22577V10.8867Z" fill="#187FB8"/>
<path d="M7.22577 10.8867H1.03223V30.4996H7.22577V10.8867Z" fill="#1267A0"/>
<path d="M1.03223 21.9825C2.58061 22.6028 4.64513 23.1221 7.22577 23.5231V10.8867H1.03223V21.9825Z" fill="#187FB8"/>
<path d="M1.03223 13.4152C2.58061 14.0361 4.64513 14.5548 7.22577 14.9559V10.8867H1.03223V13.4152Z" fill="#2499CE"/>
<path d="M24.1883 10.6406C20.6141 10.6406 18.0649 12.5746 18.0649 13.9309V10.8848H10.8525C10.9434 12.4331 10.8525 30.4977 10.8525 30.4977H18.0649V19.8974C18.0649 19.3039 17.9338 18.7093 18.114 18.2819C18.596 17.0938 19.5023 15.8618 21.3635 15.8618C23.7965 15.8618 24.7746 17.6884 24.7746 20.365V30.4977H32.0004V19.6032C32.0004 13.4819 28.6203 10.6406 24.1883 10.6406Z" fill="#187FB8"/>
<path d="M24.1883 10.6406C20.6141 10.6406 18.0649 12.5746 18.0649 13.9309V10.8848H10.8525C10.9434 12.4331 10.8525 30.4977 10.8525 30.4977H18.0649V19.8974C18.0649 19.3039 17.9338 18.7093 18.114 18.2819C18.596 17.0938 19.5023 15.8618 21.3635 15.8618C23.7965 15.8618 24.7746 17.6884 24.7746 20.365V30.4977H32.0004V19.6032C32.0004 13.4819 28.6203 10.6406 24.1883 10.6406Z" fill="#1267A0"/>
<path d="M24.1883 10.6406C20.6141 10.6406 18.0649 12.5746 18.0649 13.9309V10.8848H10.8525C10.9062 11.917 10.8959 18.7134 10.8783 24.0842C13.1122 24.3315 15.4843 24.4548 18.0649 24.46V19.8974C18.0649 19.3039 18.0783 19.1846 18.0783 19.1846C18.0783 17.3199 19.5018 15.8618 21.3635 15.8618C23.7965 15.8618 24.7746 17.6884 24.7746 20.365V24.0946C27.3552 23.8257 29.8053 23.4133 32.0004 22.8801V19.6027C32.0004 13.4819 28.6203 10.6406 24.1883 10.6406Z" fill="#187FB8"/>
<path d="M24.1883 10.6406C20.6141 10.6406 18.0649 12.5746 18.0649 13.9309V10.8848H10.8525C10.8789 11.4009 10.8897 13.165 10.8923 15.5371C13.1648 15.788 15.5472 15.9088 18.0014 15.9088C22.6528 15.9088 27.092 15.4195 30.9743 14.5684C29.6138 11.9165 27.1411 10.6406 24.1883 10.6406Z" fill="#2499CE"/>
<path d="M3.81058 1.5C1.50658 1.5 0 2.9529 0 4.9049C0 6.82026 1.46323 8.30361 3.72129 8.30361H3.76671C6.11097 8.30361 7.57058 6.81458 7.57058 4.90026C7.52671 2.94877 6.11148 1.5 3.81058 1.5Z" fill="#2499CE"/>
<path d="M3.81058 3.36007C1.50658 3.36007 0 2.95439 0 4.90639C0 6.82175 1.46323 8.3051 3.72129 8.3051H3.76671C6.11097 8.3051 7.57058 6.81607 7.57058 4.90175C7.52671 2.95026 6.11148 3.36007 3.81058 3.36007Z" fill="#187FB8"/>
<path d="M3.81058 6.1938C1.50658 6.1938 0 4.29754 0 4.90554C0 6.82089 1.46323 8.30425 3.72129 8.30425H3.76671C6.11097 8.30425 7.57058 6.81522 7.57058 4.9009C7.55716 4.29393 6.08052 6.1938 3.81058 6.1938Z" fill="#1267A0"/>
</svg>
