<svg width="13" height="3" viewBox="0 0 13 3" fill="none" xmlns="http://www.w3.org/2000/svg">
<path d="M0.106484 1.14746C0.106484 0.866211 0.188516 0.631836 0.352578 0.444336C0.5225 0.256836 0.774453 0.163086 1.10844 0.163086C1.44242 0.163086 1.69438 0.256836 1.8643 0.444336C2.04008 0.631836 2.12797 0.866211 2.12797 1.14746C2.12797 1.41699 2.04008 1.64258 1.8643 1.82422C1.69438 2.00586 1.44242 2.09668 1.10844 2.09668C0.774453 2.09668 0.5225 2.00586 0.352578 1.82422C0.188516 1.64258 0.106484 1.41699 0.106484 1.14746ZM5.39258 1.14746C5.39258 0.866211 5.47461 0.631836 5.63867 0.444336C5.80859 0.256836 6.06055 0.163086 6.39453 0.163086C6.72852 0.163086 6.98047 0.256836 7.15039 0.444336C7.32617 0.631836 7.41406 0.866211 7.41406 1.14746C7.41406 1.41699 7.32617 1.64258 7.15039 1.82422C6.98047 2.00586 6.72852 2.09668 6.39453 2.09668C6.06055 2.09668 5.80859 2.00586 5.63867 1.82422C5.47461 1.64258 5.39258 1.41699 5.39258 1.14746ZM10.6787 1.14746C10.6787 0.866211 10.7607 0.631836 10.9248 0.444336C11.0947 0.256836 11.3466 0.163086 11.6806 0.163086C12.0146 0.163086 12.2666 0.256836 12.4365 0.444336C12.6123 0.631836 12.7002 0.866211 12.7002 1.14746C12.7002 1.41699 12.6123 1.64258 12.4365 1.82422C12.2666 2.00586 12.0146 2.09668 11.6806 2.09668C11.3466 2.09668 11.0947 2.00586 10.9248 1.82422C10.7607 1.64258 10.6787 1.41699 10.6787 1.14746Z" fill= var( --ui-color-gray-dark1)/>
</svg>
