<svg width="16" height="16" viewBox="0 0 16 16" fill="none" xmlns="http://www.w3.org/2000/svg">
<g clip-path="url(#clip0)">
<path d="M3.67352 7.33203H0.34018C0.15618 7.33203 0.00683594 7.48137 0.00683594 7.66538V15.6654C0.00683594 15.8494 0.15618 15.9987 0.34018 15.9987H3.67352C3.85752 15.9987 4.00687 15.8494 4.00687 15.6654V7.66534C4.00684 7.48134 3.85818 7.33203 3.67352 7.33203Z" fill="#BFBFBF"/>
<path d="M9.65986 0H6.32651C6.14251 0 5.99316 0.149344 5.99316 0.333344V15.6667C5.99316 15.8507 6.14251 16 6.32651 16H9.65986C9.84386 16 9.99321 15.8507 9.99321 15.6667V0.333344C9.99321 0.149344 9.84386 0 9.65986 0Z" fill="#BFBFBF"/>
<path d="M15.6598 3.33203H12.3265C12.1425 3.33203 11.9932 3.48137 11.9932 3.66537V15.6654C11.9932 15.8494 12.1425 15.9987 12.3265 15.9987H15.6598C15.8438 15.9987 15.9932 15.8494 15.9932 15.6654V3.66537C15.9932 3.48134 15.8438 3.33203 15.6598 3.33203Z" fill="#BFBFBF"/>
</g>
<defs>
<clipPath id="clip0">
<rect width="16" height="16" fill="white"/>
</clipPath>
</defs>
</svg>
