<svg width="18" height="18" viewBox="0 0 18 18" fill="none" xmlns="http://www.w3.org/2000/svg">
<path d="M0 8.47266H3.74013C3.77476 7.15236 3.9362 5.90854 4.20543 4.78125H1.09417C0.498691 5.89271 0.0778359 7.14516 0 8.47266H0Z" fill="#BFBFBF"/>
<path d="M3.74013 9.52734H0C0.0778359 10.8548 0.498691 12.1073 1.09417 13.2188H4.20546C3.93623 12.0915 3.77476 10.8476 3.74013 9.52734Z" fill="#BFBFBF"/>
<path d="M8.47234 8.47266V4.78125H5.29559C5.00696 5.89837 4.83216 7.15352 4.79395 8.47266H8.47234Z" fill="#BFBFBF"/>
<path d="M8.47189 3.72656V0C7.31712 0.322523 6.29421 1.798 5.61914 3.72656H8.47189Z" fill="#BFBFBF"/>
<path d="M8.47189 18V14.2734H5.61914C6.29421 16.202 7.31712 17.6775 8.47189 18Z" fill="#BFBFBF"/>
<path d="M9.52734 0V3.72656H12.3801C11.705 1.798 10.6821 0.322523 9.52734 0Z" fill="#BFBFBF"/>
<path d="M13.2057 8.47266C13.1675 7.15352 12.9927 5.89837 12.7041 4.78125H9.52734V8.47266H13.2057Z" fill="#BFBFBF"/>
<path d="M8.47234 9.52734H4.79395C4.8322 10.8465 5.00696 12.1016 5.29559 13.2188H8.47234V9.52734Z" fill="#BFBFBF"/>
<path d="M13.5006 3.72583H16.234C15.1424 2.23264 13.6057 0.971164 11.8154 0.376953C12.5035 1.1892 13.0789 2.41064 13.5006 3.72583Z" fill="#BFBFBF"/>
<path d="M4.49902 14.2734H1.76562C2.85719 15.7666 4.39391 17.0281 6.1842 17.6223C5.49616 16.8101 4.92069 15.5886 4.49902 14.2734Z" fill="#BFBFBF"/>
<path d="M4.49902 3.72583C4.92065 2.41064 5.49616 1.1892 6.18417 0.376953C4.39391 0.971164 2.85719 2.23264 1.76562 3.72583H4.49902Z" fill="#BFBFBF"/>
<path d="M13.5006 14.2734C13.0789 15.5886 12.5034 16.8101 11.8154 17.6223C13.6057 17.0281 15.1424 15.7666 16.234 14.2734H13.5006Z" fill="#BFBFBF"/>
<path d="M9.52734 9.52734V13.2188H12.7041C12.9927 12.1016 13.1675 10.8465 13.2057 9.52734H9.52734Z" fill="#BFBFBF"/>
<path d="M13.7949 4.78125C14.0641 5.90854 14.2256 7.15236 14.2602 8.47266H18.0003C17.9225 7.14516 17.5017 5.89271 16.9062 4.78125H13.7949Z" fill="#BFBFBF"/>
<path d="M9.52734 14.2734V18C10.6821 17.6775 11.705 16.202 12.3801 14.2734H9.52734Z" fill="#BFBFBF"/>
<path d="M18.0003 9.52734H14.2602C14.2256 10.8476 14.0641 12.0915 13.7949 13.2188H16.9062C17.5017 12.1073 17.9225 10.8548 18.0003 9.52734Z" fill="#BFBFBF"/>
</svg>
