<svg width="19" height="19" viewBox="0 0 19 19" fill="none" xmlns="http://www.w3.org/2000/svg">
<path d="M18.5606 11.9985L16.5561 10.4262C16.5941 10.1222 16.6226 9.81348 16.6226 9.49998C16.6226 9.18648 16.5941 8.87774 16.5561 8.57373L18.5654 7.00146C18.7458 6.85896 18.7981 6.60246 18.6794 6.39348L16.7793 3.10173C16.6606 2.89747 16.4136 2.81197 16.1999 2.89747L13.8344 3.85222C13.3451 3.47695 12.8084 3.15873 12.2289 2.91648L11.8726 0.399C11.8298 0.175765 11.6351 0 11.3976 0H7.59763C7.36014 0 7.16536 0.175765 7.12738 0.399L6.77113 2.91648C6.19164 3.15873 5.65487 3.47223 5.16565 3.85222L2.80015 2.89747C2.5864 2.81673 2.33938 2.89747 2.22066 3.10173L0.320605 6.39348C0.20184 6.59774 0.25412 6.85424 0.434605 7.00146L2.43909 8.57373C2.4011 8.87774 2.3726 9.18648 2.3726 9.49998C2.3726 9.81348 2.4011 10.1222 2.43909 10.4262L0.434605 11.9985C0.25412 12.141 0.20184 12.3975 0.320605 12.6065L2.22062 15.8982C2.33938 16.1025 2.58635 16.188 2.8001 16.1025L5.1656 15.1477C5.65487 15.523 6.1916 15.8412 6.77108 16.0835L7.12733 18.601C7.16532 18.8242 7.3601 19 7.59758 19H11.3976C11.6351 19 11.8298 18.8242 11.8678 18.601L12.2241 16.0835C12.8035 15.8412 13.3403 15.5277 13.8295 15.1477L16.195 16.1025C16.4088 16.1832 16.6558 16.1025 16.7745 15.8982L18.6745 12.6065C18.7934 12.4023 18.7411 12.1458 18.5606 11.9985ZM9.4976 12.825C7.65935 12.825 6.17259 11.3382 6.17259 9.49998C6.17259 7.66173 7.65935 6.17501 9.4976 6.17501C11.3358 6.17501 12.8226 7.66177 12.8226 9.50002C12.8226 11.3383 11.3358 12.825 9.4976 12.825Z" fill="#BFBFBF"/>
</svg>
