<svg width="17" height="17" viewBox="0 0 17 17" fill="none" xmlns="http://www.w3.org/2000/svg">
<path d="M9.20194 9.31445H7.79869C7.70453 9.31445 7.62793 9.39105 7.62793 9.48522V10.8948C7.62793 10.9889 7.70453 11.0655 7.79869 11.0655H9.20194C9.2961 11.0655 9.3727 10.9889 9.3727 10.8948V9.48522C9.3727 9.39105 9.2961 9.31445 9.20194 9.31445Z" fill="#BFBFBF"/>
<path d="M14.3774 3.55201H11.4832V2.34099C11.4832 1.70817 10.9635 1.19336 10.3246 1.19336H6.67542C6.03653 1.19336 5.51677 1.70817 5.51677 2.34099V3.55204H2.62262C1.17652 3.55201 0 4.72853 0 6.17466V7.74653C0.0973516 8.22057 0.439609 8.61074 0.913252 8.76231L6.62851 10.1591V9.48551C6.62851 8.84044 7.15331 8.31563 7.79838 8.31563H9.20162C9.84669 8.31563 10.3715 8.84044 10.3715 9.48551V10.1591L16.0867 8.76231C16.5604 8.61074 16.9026 8.22057 17 7.74653V6.17466C17 4.72853 15.8235 3.55201 14.3774 3.55201ZM10.4841 3.55204H6.51591V2.34099C6.51591 2.25632 6.58448 2.19247 6.67542 2.19247H10.3246C10.4155 2.19247 10.4841 2.25632 10.4841 2.34099V3.55204Z" fill="#BFBFBF"/>
<path d="M16.3685 9.72128C16.3589 9.72423 16.3493 9.72689 16.3396 9.72925L10.3317 11.1976C10.1981 11.6965 9.74216 12.0651 9.20162 12.0651H7.79838C7.25784 12.0651 6.80193 11.6965 6.66832 11.1976L0.660377 9.72925C0.650682 9.72686 0.641053 9.7242 0.63149 9.72128C0.40209 9.65039 0.190387 9.54716 0 9.41797V13.6644C0 14.8457 0.960998 15.8067 2.14227 15.8067H14.8577C16.039 15.8067 17 14.8457 17 13.6644V9.41797C16.8096 9.54716 16.5979 9.65039 16.3685 9.72128Z" fill="#BFBFBF"/>
</svg>
