<svg width="18" height="18" viewBox="0 0 18 18" fill="none" xmlns="http://www.w3.org/2000/svg">
<path d="M15.4018 9.60938H14.0098C14.1517 9.99785 14.2292 10.4171 14.2292 10.854V16.1152C14.2292 16.2974 14.1975 16.4722 14.1398 16.6349H16.4411C17.3008 16.6349 18.0002 15.9355 18.0002 15.0758V12.2077C18.0002 10.775 16.8346 9.60938 15.4018 9.60938Z" fill="#BFBFBF"/>
<path d="M3.77104 10.854C3.77104 10.4171 3.84856 9.99785 3.99045 9.60938H2.5984C1.16564 9.60938 0 10.775 0 12.2078V15.0759C0 15.9355 0.699365 16.6349 1.55904 16.6349H3.86044C3.80275 16.4722 3.77104 16.2974 3.77104 16.1152V10.854Z" fill="#BFBFBF"/>
<path d="M10.5914 8.25391H7.40895C5.97619 8.25391 4.81055 9.41955 4.81055 10.8523V16.1135C4.81055 16.4004 5.04321 16.6331 5.33023 16.6331H12.6701C12.9571 16.6331 13.1898 16.4005 13.1898 16.1135V10.8523C13.1898 9.41955 12.0241 8.25391 10.5914 8.25391Z" fill="#BFBFBF"/>
<path d="M8.9999 1.36719C7.27682 1.36719 5.875 2.76901 5.875 4.49213C5.875 5.6609 6.52008 6.68166 7.47275 7.21759C7.92461 7.47177 8.44556 7.61703 8.9999 7.61703C9.55424 7.61703 10.0752 7.47177 10.5271 7.21759C11.4798 6.68166 12.1248 5.66086 12.1248 4.49213C12.1248 2.76905 10.723 1.36719 8.9999 1.36719Z" fill="#BFBFBF"/>
<path d="M3.5128 4.27734C2.22414 4.27734 1.17578 5.32571 1.17578 6.61436C1.17578 7.90302 2.22414 8.95138 3.5128 8.95138C3.83968 8.95138 4.15096 8.88367 4.43372 8.76196C4.9226 8.55148 5.3257 8.17889 5.57514 7.71219C5.75022 7.38464 5.84981 7.01096 5.84981 6.61436C5.84981 5.32574 4.80145 4.27734 3.5128 4.27734Z" fill="#BFBFBF"/>
<path d="M14.4874 4.27734C13.1988 4.27734 12.1504 5.32571 12.1504 6.61436C12.1504 7.011 12.25 7.38467 12.4251 7.71219C12.6745 8.17893 13.0776 8.55151 13.5665 8.76196C13.8492 8.88367 14.1605 8.95138 14.4874 8.95138C15.7761 8.95138 16.8244 7.90302 16.8244 6.61436C16.8244 5.32571 15.7761 4.27734 14.4874 4.27734Z" fill="#BFBFBF"/>
</svg>
