<svg width="19" height="19" viewBox="0 0 19 19" fill="none" xmlns="http://www.w3.org/2000/svg">
<g clip-path="url(#clip0)">
<path d="M3.16699 5.34375C3.16699 3.27038 4.85403 1.58333 6.92741 1.58333H14.1577C13.8972 0.672125 13.0668 0 12.0732 0H2.96908C1.76812 0 0.791992 0.976125 0.791992 2.17708V14.4479C0.791992 15.6489 1.76812 16.625 2.96908 16.625H3.16699V5.34375Z" fill="#BFBFBF"/>
<path d="M16.0312 3.16797H6.92708C5.72612 3.16797 4.75 4.14409 4.75 5.34505V16.8242C4.75 18.0252 5.72612 19.0013 6.92708 19.0013H16.0312C17.2322 19.0013 18.2083 18.0252 18.2083 16.8242V5.34505C18.2083 4.14409 17.2322 3.16797 16.0312 3.16797ZM14.4479 16.6263H8.51042C8.18267 16.6263 7.91667 16.3603 7.91667 16.0326C7.91667 15.7048 8.18267 15.4388 8.51042 15.4388H14.4479C14.7757 15.4388 15.0417 15.7048 15.0417 16.0326C15.0417 16.3603 14.7757 16.6263 14.4479 16.6263ZM14.4479 13.4596H8.51042C8.18267 13.4596 7.91667 13.1936 7.91667 12.8659C7.91667 12.5381 8.18267 12.2721 8.51042 12.2721H14.4479C14.7757 12.2721 15.0417 12.5381 15.0417 12.8659C15.0417 13.1936 14.7757 13.4596 14.4479 13.4596ZM14.4479 10.6888H8.51042C8.18267 10.6888 7.91667 10.4228 7.91667 10.0951C7.91667 9.76731 8.18267 9.50131 8.51042 9.50131H14.4479C14.7757 9.50131 15.0417 9.76731 15.0417 10.0951C15.0417 10.4228 14.7757 10.6888 14.4479 10.6888ZM14.4479 7.52214H8.51042C8.18267 7.52214 7.91667 7.25614 7.91667 6.92839C7.91667 6.60064 8.18267 6.33464 8.51042 6.33464H14.4479C14.7757 6.33464 15.0417 6.60064 15.0417 6.92839C15.0417 7.25614 14.7757 7.52214 14.4479 7.52214Z" fill="#BFBFBF"/>
</g>
<defs>
<clipPath id="clip0">
<rect width="19" height="19" fill="white"/>
</clipPath>
</defs>
</svg>
