<svg width="10" height="6" viewBox="0 0 10 6" fill="none" xmlns="http://www.w3.org/2000/svg">
<path d="M0.159839 5.45946L0.487403 5.7893C0.590493 5.89231 0.727648 5.94906 0.874234 5.94906C1.02074 5.94906 1.15806 5.89231 1.26115 5.7893L4.99776 2.05253L8.73869 5.79345C8.84162 5.89646 8.97893 5.95313 9.12544 5.95313C9.27195 5.95313 9.40934 5.89646 9.51235 5.79345L9.84 5.46564C10.0533 5.25247 10.0533 4.90523 9.84 4.69206L5.38598 0.222023C5.28305 0.119095 5.14589 0.0465736 4.99809 0.0465736L4.99638 0.0465736C4.8498 0.0465736 4.71264 0.119176 4.60971 0.222023L0.159839 4.67994C0.0567483 4.78287 0.000162988 4.92417 -7.71459e-08 5.07068C-6.43309e-08 5.21727 0.0567483 5.35662 0.159839 5.45946Z" fill="var(--ui-color-primary-green-dark2)"/>
</svg>
