<svg width="16" height="12" viewBox="0 0 16 12" fill="none" xmlns="http://www.w3.org/2000/svg">
<path d="M4.69088 10.0002L4.69088 2.60512L6.60677 4.52101C6.83395 4.74823 7.20236 4.74823 7.42958 4.52101C7.54315 4.4074 7.59997 4.25849 7.59997 4.10958C7.59997 3.96068 7.54315 3.81177 7.42954 3.6982L4.52045 0.789107C4.29327 0.561888 3.92486 0.561888 3.69764 0.789107L0.78855 3.6982C0.561369 3.92538 0.561369 4.29379 0.78855 4.52101C1.01573 4.74823 1.38414 4.74823 1.61136 4.52101L3.52725 2.60512L3.52725 10.0002C3.52725 10.3215 3.78774 10.582 4.10906 10.582C4.43038 10.582 4.69088 10.3215 4.69088 10.0002Z" fill="#969BA3"/>
<path d="M12.6909 1.99979V9.39488L14.6068 7.47899C14.834 7.25177 15.2024 7.25177 15.4296 7.47899C15.5431 7.5926 15.6 7.74151 15.6 7.89042C15.6 8.03932 15.5431 8.18823 15.4295 8.3018L12.5204 11.2109C12.2933 11.4381 11.9249 11.4381 11.6976 11.2109L8.78855 8.3018C8.56137 8.07462 8.56137 7.70621 8.78855 7.47899C9.01573 7.25177 9.38414 7.25177 9.61136 7.47899L11.5272 9.39488V1.99979C11.5272 1.67847 11.7877 1.41797 12.1091 1.41797C12.4304 1.41797 12.6909 1.67847 12.6909 1.99979Z" fill="#969BA3"/>
</svg>
