<svg width="32" height="32" viewBox="0 0 32 32" fill="none" xmlns="http://www.w3.org/2000/svg">
<path d="M31.1167 3.34084C29.8469 4.11083 28.4446 4.67157 26.9452 4.97276C25.7511 3.66387 24.0435 2.84766 22.1536 2.84766C18.5306 2.84766 15.5913 5.86161 15.5913 9.57851C15.5913 10.1067 15.6477 10.6177 15.761 11.1114C10.304 10.83 5.46916 8.1528 2.22868 4.07528C1.66337 5.07282 1.33983 6.23086 1.33983 7.46407C1.33983 9.79894 2.49076 11.8585 4.25271 13.0658C3.17797 13.0333 2.28607 12.7271 1.27025 12.2263V12.3101C1.27025 15.5724 3.54062 18.2938 6.54644 18.9094C5.99536 19.0678 5.41888 19.1466 4.82005 19.1466C4.39797 19.1466 3.98555 19.1059 3.58684 19.0277C4.42286 21.7003 6.84662 23.6482 9.72039 23.7C7.47491 25.5066 4.64177 26.5834 1.56738 26.5834C1.03915 26.5834 0.513968 26.5529 0.000976562 26.49C2.90725 28.3967 6.35953 29.512 10.0648 29.512C22.1414 29.512 28.7437 19.2573 28.7437 10.3602C28.7437 10.0686 28.7371 9.77507 28.727 9.4881C30.0089 8.53881 31.1233 7.35487 32 6.00484C30.8247 6.53967 29.5579 6.90232 28.2297 7.06434C29.5859 6.23086 30.6271 4.9113 31.1167 3.34084Z" fill="#24A9E6"/>
<path d="M31.1167 3.34084C29.8469 4.11083 28.4446 4.67157 26.9452 4.97276C25.7511 3.66387 24.0435 2.84766 22.1536 2.84766C18.5306 2.84766 15.5913 5.86161 15.5913 9.57851C15.5913 10.1067 15.6477 10.6177 15.761 11.1114C10.304 10.83 5.46916 8.1528 2.22868 4.07528C1.66337 5.07282 1.33983 6.23086 1.33983 7.46407C1.33983 9.79894 2.49076 11.8585 4.25271 13.0658C3.17797 13.0333 2.28607 12.7271 1.27025 12.2263V12.3101C1.27025 15.5724 3.54062 18.2938 6.54644 18.9094C5.99536 19.0678 5.41888 19.1466 4.82005 19.1466C4.39797 19.1466 3.98555 19.1059 3.58684 19.0277C4.42286 21.7003 6.84662 23.6482 9.72039 23.7C7.47491 25.5066 4.64177 26.5834 1.56738 26.5834C1.03915 26.5834 0.513968 26.5529 0.000976562 26.49C2.90725 28.3967 6.35953 29.512 10.0648 29.512C22.1414 29.512 28.7437 19.2573 28.7437 10.3602C28.7437 10.0686 28.7371 9.77507 28.727 9.4881C30.0089 8.53881 31.1233 7.35487 32 6.00484C30.8247 6.53967 29.5579 6.90232 28.2297 7.06434C29.5859 6.23086 30.6271 4.9113 31.1167 3.34084Z" fill="#24A9E6"/>
<path d="M31.9984 6.00484C30.8231 6.53967 29.5564 6.90232 28.2282 7.06434C29.5853 6.23137 30.6271 4.91181 31.1162 3.34084C29.8464 4.11083 28.444 4.67157 26.9447 4.97276C25.7506 3.66387 24.043 2.84766 22.153 2.84766C18.5301 2.84766 15.5908 5.86161 15.5908 9.57851C15.5908 10.1067 15.6472 10.6177 15.7605 11.1114C15.7569 11.1114 15.7528 11.1104 15.7528 11.1104L25.6206 20.9822C27.6756 17.7234 28.7422 13.9328 28.7422 10.3607C28.7422 10.0692 28.7356 9.77558 28.7254 9.48861C30.0074 8.53932 31.1218 7.35487 31.9984 6.00484Z" fill="#169FDB"/>
<path d="M9.71433 23.707C7.46936 25.5106 4.63826 26.5854 1.56691 26.5854C1.03868 26.5854 0.513499 26.5549 0 26.4919C2.90627 28.3986 6.35855 29.514 10.0638 29.514C11.7968 29.514 13.4129 29.2976 14.9169 28.9091L9.71433 23.707Z" fill="#169FDB"/>
<path d="M31.1167 3.34084C29.8469 4.11083 28.4446 4.67157 26.9452 4.97276C25.7511 3.66387 24.0435 2.84766 22.1535 2.84766C18.5306 2.84766 15.5913 5.86161 15.5913 9.57851C15.5913 10.1067 15.6477 10.6177 15.761 11.1114C11.2695 10.8803 7.20061 9.02235 4.09473 6.09982C7.28442 9.4688 11.6616 11.6371 16.5386 11.8885C16.4253 11.3953 16.3689 10.8838 16.3689 10.3566C16.3689 6.63871 19.3082 3.62476 22.9317 3.62476C24.8211 3.62476 26.5287 4.44149 27.7228 5.74987" fill="#3DC8F9"/>
<path d="M5.66373 19.0913C5.38844 19.1274 5.10807 19.1462 4.82364 19.1462C4.40157 19.1462 3.98711 19.1056 3.58789 19.0273C3.97543 20.2646 4.7053 21.3429 5.65966 22.1535C5.08572 21.475 4.63978 20.6796 4.36601 19.8044" fill="#3DC8F9"/>
<path d="M30.8829 7.46669C31.2846 7.00246 31.6641 6.52045 31.9988 6.00391C31.5203 6.2218 31.0221 6.40313 30.5146 6.5621" fill="#24A9E6"/>
<path d="M0.658732 26.701C0.521088 26.6833 0.302178 26.6568 0.152344 26.5878C0.590164 26.8717 0.961448 27.0967 1.42212 27.3446C1.72789 27.3659 2.03568 27.4482 2.345 27.4482C5.41939 27.4482 8.25202 26.1565 10.4985 24.6328C10.4945 24.6328 10.4914 24.6328 10.4879 24.6328C7.54348 26.1565 4.24764 27.1556 0.658732 26.701Z" fill="#3DC8F9"/>
<path d="M3.73668 12.6559C2.73152 11.4725 2.11746 9.93096 2.11746 8.24012C2.11746 7.04144 2.42525 5.9154 2.96161 4.93767C2.70968 4.65629 2.46385 4.36982 2.22869 4.07422C1.66338 5.07176 1.33984 6.2298 1.33984 7.46301C1.33984 9.55408 2.27491 11.4217 3.73668 12.6559Z" fill="#3DC8F9"/>
<path d="M4.252 13.0622C3.23566 13.0048 2.28536 12.6986 1.26953 12.2227V12.3065C1.26953 14.3975 2.20054 16.2631 3.65875 17.4963C2.65613 16.3149 2.28536 14.7734 2.28536 13.0841V12.948" fill="#3DC8F9"/>
<path d="M13.4072 7.76559C13.4072 7.76559 14.4012 4.72116 8.87207 3.16797C8.87207 3.16797 9.34087 5.66944 10.7671 6.89554C12.3203 8.23135 13.4072 7.76559 13.4072 7.76559Z" fill="#3DC8F9"/>
<path d="M14.538 6.53471C14.538 6.53471 15.6864 5.86426 14.3993 3.85547C14.3993 3.85547 13.8538 4.76158 13.9574 5.53615C14.0712 6.37878 14.538 6.53471 14.538 6.53471Z" fill="#3DC8F9"/>
<path d="M9.68955 8.09669C9.68955 8.09669 8.4792 8.64981 7.57715 6.44141C7.57715 6.44141 8.63157 6.51709 9.20602 7.04735C9.83024 7.62586 9.68955 8.09669 9.68955 8.09669Z" fill="#3DC8F9"/>
<path d="M14.7886 10.3442C14.7886 10.3442 13.5437 10.8151 12.792 8.55078C12.792 8.55078 13.8393 8.69706 14.3762 9.2644C14.9603 9.88405 14.7886 10.3442 14.7886 10.3442Z" fill="#24A9E6"/>
<path d="M11.5754 9.38512C11.85 9.38512 12.0726 9.16249 12.0726 8.88787C12.0726 8.61325 11.85 8.39062 11.5754 8.39062C11.3007 8.39062 11.0781 8.61325 11.0781 8.88787C11.0781 9.16249 11.3007 9.38512 11.5754 9.38512Z" fill="#24A9E6"/>
<path d="M8.40711 5.28296C8.51006 5.28296 8.59351 5.19951 8.59351 5.09656C8.59351 4.99361 8.51006 4.91016 8.40711 4.91016C8.30416 4.91016 8.2207 4.99361 8.2207 5.09656C8.2207 5.19951 8.30416 5.28296 8.40711 5.28296Z" fill="#24A9E6"/>
<path d="M12.3522 2.67519C12.4039 2.67519 12.4457 2.63335 12.4457 2.58174C12.4457 2.53012 12.4039 2.48828 12.3522 2.48828C12.3006 2.48828 12.2588 2.53012 12.2588 2.58174C12.2588 2.63335 12.3006 2.67519 12.3522 2.67519Z" fill="#24A9E6"/>
<path d="M12.7237 4.34771C12.9124 4.34771 13.0655 4.19467 13.0655 4.00589C13.0655 3.8171 12.9124 3.66406 12.7237 3.66406C12.5349 3.66406 12.3818 3.8171 12.3818 4.00589C12.3818 4.19467 12.5349 4.34771 12.7237 4.34771Z" fill="#3DC8F9"/>
</svg>
